<?xml version="1.0" encoding="utf-8"?>
<!DOCTYPE svg PUBLIC "-//W3C//DTD SVG 1.1//EN" "http://www.w3.org/Graphics/SVG/1.1/DTD/svg11.dtd">
<svg xmlns="http://www.w3.org/2000/svg" xmlns:xlink="http://www.w3.org/1999/xlink" version="1.1" baseProfile="full" width="137.333" height="138.667" viewBox="0 0 137.33 138.67" enable-background="new 0 0 137.33 138.67" xml:space="preserve">
	<g>
		<g>
			<image x="0" y="0" width="103" height="104" transform="matrix(1.33,0.00,0.00,1.33,0.00,0.00)" xlink:href="icon_counseling_step03_files/image2.png"/>
			<path fill="#000000" fill-opacity="1" stroke-width="0.999875" stroke-linejoin="round" d="M 40.8492,121.019C 38.585,119.471 38.004,116.379 39.5516,114.114L 46.1735,104.423C 47.558,106.766 50.5126,108.566 54.5326,109.412L 54.765,109.459L 47.7527,119.721C 46.7909,121.13 45.233,121.887 43.6478,121.887C 42.6821,121.887 41.7063,121.605 40.8492,121.019 Z M 87.9144,107.257C 90.7765,104.549 94.8431,92.1885 94.5988,81.5493L 97.6625,82.3722C 98.51,82.5995 99.0126,83.4723 98.7853,84.3202L 91.3652,111.96C 91.163,112.714 90.4521,113.192 89.7007,113.13L 79.7708,113.141L 81.1559,120.907C 89.7028,121.54 95.9396,123.518 95.9396,125.861C 95.9396,128.715 54.6154,128.715 54.6154,125.861C 54.6154,123.518 60.8527,121.54 69.3999,120.907L 70.7848,113.141L 60.973,113.141C 60.0953,113.141 59.3837,112.429 59.3837,111.552L 59.3837,110.219C 63.09,110.702 67.2303,110.98 71.0299,110.98C 76.9381,110.98 84.6625,110.335 87.9144,107.257 Z M 109.563,33.4409C 114.448,32.7283 118.985,36.1119 119.697,40.998C 120.41,45.8843 117.027,50.4233 112.142,51.1356C 107.258,51.8483 102.721,48.465 102.008,43.5784C 101.296,38.6921 104.678,34.1536 109.563,33.4409 Z M 80.7111,64.9225C 75.7792,65.1198 71.62,61.2788 71.4244,56.344C 71.2283,51.4095 75.0675,47.2496 79.9991,47.0532C 82.3519,46.9587 84.5267,47.7844 86.1812,49.2072L 86.5447,48.5127C 87.5516,47.0735 89.5336,46.7231 90.9723,47.73C 97.2174,52.1003 103.583,53.089 108.141,53.0935C 111.654,53.0956 114.038,52.4902 114.218,52.4415L 114.661,52.3536L 115.329,52.1886C 118.78,51.6304 123.525,53.8793 125.031,59.8464C 127.053,68.064 127.195,73.3145 125.431,82.0275C 124.313,85.9786 122.143,87.5536 119.785,88.0922C 118.95,91.8241 118.129,97.0725 118.129,103.399C 118.129,108.48 118.657,114.255 120.14,120.466C 120.777,123.136 119.13,125.816 116.462,126.453C 116.074,126.546 115.686,126.59 115.304,126.59C 113.058,126.59 111.022,125.056 110.478,122.775C 108.795,115.727 108.195,109.168 108.195,103.399C 108.201,92.9568 110.147,85.1062 111.27,81.4382C 112.135,77.1603 111.946,72.3719 111.535,68.0264C 113.693,67.2255 115.43,66.025 116.682,64.9443C 118.601,63.2843 119.74,61.6725 120.14,61.0564C 121.328,59.1685 120.77,56.7091 118.917,55.5409L 118.239,55.2087C 117.781,55.0297 117.297,54.9286 116.802,54.9286C 115.427,54.9286 114.169,55.6235 113.437,56.7852C 113.429,56.7966 112.604,58.033 111.246,59.1293L 110.962,59.3439L 110.617,59.5985L 110.616,59.3699L 108.14,59.4536C 105.991,59.4536 103.519,59.2679 100.846,58.7316C 100.196,58.2491 99.531,57.6896 98.8485,57.0487L 98.4617,56.7306C 98.611,56.0406 98.4989,55.3313 98.1354,54.7223C 97.7555,54.0852 97.1511,53.6345 96.4324,53.4546L 95.6687,53.3527C 95.0074,53.3527 94.6404,53.6057 94.5433,53.6829C 94.3015,53.8767 93.8345,54.0171 93.4335,54.0171L 93.1464,53.9874L 92.5568,53.8384C 92.2122,53.7513 91.7977,53.3267 91.7202,52.9797L 90.8632,49.1549C 90.6449,48.1838 89.9878,47.5055 89.2639,47.5055L 89.01,47.5336C 88.5502,47.6362 88.1979,47.9994 88.043,48.5297C 87.9327,48.9048 87.9264,49.3529 88.025,49.7915L 88.688,52.7539L 88.714,52.8699L 86.7006,52.3611L 85.6571,52.0974L 84.9736,52.0112C 84.1576,52.0112 83.5305,52.4086 83.376,53.0238C 83.2604,53.4806 83.4257,53.9589 83.8286,54.3359C 84.1139,54.6034 84.5109,54.8105 84.9458,54.9199L 88.7461,55.8793C 88.9272,55.9247 89.1263,56.0651 89.287,56.2374C 89.161,60.9025 85.4391,64.733 80.7111,64.9225 Z M 92.2557,60.8715L 92.6107,61.802L 92.2365,61.9265C 91.1704,62.1659 90.1118,61.4945 89.8727,60.4275C 89.684,59.5873 89.9835,59.2312 89.9835,59.2312C 90.4059,58.7299 90.6344,57.7953 90.4911,57.1555L 90.3578,56.5626C 90.2382,56.0304 89.7773,55.4934 89.2604,55.2323L 88.9409,55.1073L 85.141,54.149C 84.5054,53.988 84.0575,53.569 84.1461,53.2173C 84.235,52.8654 84.8278,52.7085 85.4636,52.8687L 88.2665,53.5763L 88.6166,53.6647L 88.9923,53.6893C 89.3986,53.6378 89.6239,53.2936 89.5115,52.7922L 88.7998,49.6178C 88.6565,48.9781 88.8285,48.3893 89.1825,48.3101C 89.5366,48.2308 89.9437,48.6902 90.0873,49.3297L 90.9448,53.1542C 91.0885,53.7942 91.7255,54.4491 92.3617,54.6093L 92.9509,54.7582C 93.5867,54.9182 94.526,54.7145 95.0385,54.3055C 95.0385,54.3055 95.4017,54.015 96.2373,54.2255C 97.1882,54.4647 97.7969,55.3569 97.7203,56.3026L 96.8383,56.0283C 96.6801,55.6234 96.3987,55.2872 95.9955,55.1848C 95.4652,55.0519 94.9279,55.3734 94.7943,55.9037L 94.7704,56.2036L 93.9515,56.6105L 93.7678,56.7363L 93.1874,56.2766L 92.7499,56.076C 92.0374,55.8883 91.6437,56.2716 91.7843,56.896C 91.8796,57.3228 92.1924,57.7969 92.5703,58.1436L 92.2577,59.0018C 92.0389,59.0137 91.8141,58.9774 91.5861,59.0291C 91.0529,59.1487 90.7175,59.6781 90.8372,60.212C 90.9567,60.7456 91.486,61.0807 92.0195,60.9613L 92.2557,60.8715 Z M 119.487,60.5995C 119.376,60.7694 118.277,62.5129 116.16,64.343C 114.963,65.3771 113.382,66.4657 111.455,67.2118C 110.011,67.7712 108.371,68.1389 106.548,68.1423C 102.601,68.1423 98.256,66.3666 93.932,62.2465L 93.7068,62.0095L 93.2621,61.3274C 92.8461,60.4736 92.833,59.4705 93.2323,58.6044C 93.3737,58.2982 93.5637,58.0084 93.8081,57.7506L 94.2289,57.3809L 94.9063,56.9976C 95.5754,56.7681 96.0452,56.7273 96.5052,56.7837C 96.9218,56.8452 97.2166,56.9364 97.4962,57.0713L 98.1615,57.5067L 98.302,57.6263L 99.0895,58.3345C 102.266,61.0869 104.691,61.7706 106.548,61.7821C 108.101,61.7859 109.484,61.2618 110.67,60.517L 111.744,59.7478L 112.363,59.2097C 113.381,58.2623 114.021,57.3462 114.107,57.2117C 114.985,55.8186 116.761,55.34 118.203,56.0525L 118.493,56.2139C 119.978,57.1498 120.423,59.1135 119.487,60.5995 Z M 54.7786,108.245C 50.6758,107.382 47.9489,105.525 46.9352,103.308C 45.7059,100.621 46.9987,97.4055 51.4495,94.7864C 59.5713,90.0079 68.4957,86.6836 70.4073,78.5594C 72.318,70.4357 74.6967,67.0305 79.1584,66.3513C 89.5968,64.7618 93.1121,72.2625 93.3942,81.2251C 93.7202,91.5875 89.7239,103.903 87.0962,106.39C 82.926,110.337 69.0288,110.294 59.3844,109.016L 55.4961,108.39L 54.7786,108.245 Z "/>
		</g>
		<g>
			<g>
				<path fill="#000000" fill-opacity="1" fill-rule="evenodd" stroke-width="0.999875" stroke-linejoin="round" d="M 9.33325,15.7166L 10.7407,15.6156C 10.8265,16.0669 11.0009,16.3987 11.2638,16.6106C 11.5266,16.8225 11.8816,16.9286 12.3287,16.9286C 12.801,16.9286 13.1571,16.8323 13.3969,16.6399C 13.6366,16.4473 13.7565,16.2222 13.7565,15.9644C 13.7565,15.7992 13.7068,15.6587 13.6073,15.543C 13.5078,15.4272 13.3346,15.3263 13.0874,15.24C 12.9177,15.178 12.5314,15.068 11.9281,14.9102C 11.1522,14.7072 10.6077,14.4625 10.2946,14.1763C 9.85474,13.7744 9.63489,13.2842 9.63489,12.7056C 9.63489,12.3331 9.73572,11.9849 9.93726,11.6609C 10.1388,11.3369 10.4294,11.0901 10.809,10.9207C 11.1886,10.7513 11.6471,10.6667 12.1842,10.6667C 13.0607,10.6667 13.7207,10.8594 14.1642,11.2451C 14.6077,11.6306 14.8405,12.1448 14.8624,12.7876L 13.455,12.8887C 13.3964,12.5298 13.2699,12.2719 13.0756,12.1145C 12.8813,11.9573 12.59,11.8787 12.2015,11.8787C 11.8014,11.8787 11.4879,11.9644 11.2606,12.1359C 11.1151,12.2463 11.0422,12.3936 11.0422,12.5778C 11.0422,12.7461 11.1129,12.8901 11.2543,13.0101C 11.4344,13.1626 11.8711,13.3265 12.5643,13.5017C 13.2576,13.6769 13.7701,13.854 14.1022,14.0327C 14.4341,14.2117 14.694,14.4557 14.882,14.765C 15.0699,15.0742 15.1639,15.4573 15.1639,15.9138C 15.1639,16.3263 15.0498,16.7129 14.8215,17.0737C 14.5933,17.4346 14.2704,17.7026 13.8531,17.8779C 13.4359,18.053 12.9156,18.1406 12.2926,18.1406C 11.3857,18.1406 10.6893,17.9341 10.2035,17.5212C 9.71765,17.1082 9.42749,16.5067 9.33325,15.7166 Z "/>
				<path fill="#000000" fill-opacity="1" fill-rule="evenodd" stroke-width="0.999875" stroke-linejoin="round" d="M 18.1798,18.0396L 18.1798,11.9797L 16.0687,11.9797L 16.0687,10.7676L 21.6984,10.7676L 21.6984,11.9797L 19.5873,11.9797L 19.5873,18.0396L 18.1798,18.0396 Z "/>
				<path fill="#000000" fill-opacity="1" fill-rule="evenodd" stroke-width="0.999875" stroke-linejoin="round" d="M 22.7036,18.0396L 22.7036,10.7676L 28.1322,10.7676L 28.1322,11.9797L 24.111,11.9797L 24.111,13.5957L 27.8307,13.5957L 27.8307,14.8076L 24.111,14.8076L 24.111,16.8276L 28.2328,16.8276L 28.2328,18.0396L 22.7036,18.0396 Z "/>
				<path fill="#000000" fill-opacity="1" fill-rule="evenodd" stroke-width="0.999875" stroke-linejoin="round" d="M 29.5397,18.0396L 29.5397,10.7676L 31.9209,10.7676C 32.8236,10.7676 33.4115,10.804 33.6848,10.8765C 34.1058,10.986 34.4584,11.2242 34.7428,11.5914C 35.0271,11.9585 35.1692,12.4326 35.1692,13.0133C 35.1692,13.4604 35.0857,13.8369 34.9187,14.1425C 34.7516,14.448 34.5399,14.688 34.2833,14.8621C 34.0267,15.0361 33.7655,15.1516 33.4995,15.2085C 33.1393,15.2778 32.6167,15.3126 31.9319,15.3126L 30.947,15.3126L 30.947,18.0396L 29.5397,18.0396 Z M 30.947,11.9797L 30.947,14.1006L 31.8203,14.1006C 32.4497,14.1006 32.8705,14.0615 33.0824,13.9832C 33.2946,13.9047 33.4608,13.7825 33.5812,13.6162C 33.7015,13.45 33.7618,13.2563 33.7618,13.0354C 33.7618,12.7629 33.6772,12.5383 33.5082,12.3616C 33.339,12.1848 33.1251,12.0743 32.8665,12.0302C 32.6759,11.9965 32.2931,11.9797 31.7183,11.9797L 30.947,11.9797 Z "/>
			</g>
			<g>
				<path fill="#000000" fill-opacity="1" fill-rule="evenodd" stroke-width="0.999875" stroke-linejoin="round" d="M 12.9664,29.3333C 14.8458,29.3333 16.3146,29.9983 17.3729,31.3281C 18.6351,32.9048 19.2662,35.5195 19.2662,39.1724C 19.2662,42.814 18.631,45.4315 17.3605,47.025C 16.3104,48.338 14.8458,48.9945 12.9664,48.9945C 11.0787,48.9945 9.55688,48.2742 8.40076,46.8335C 7.24475,45.3929 6.66663,42.8252 6.66663,39.1302C 6.66663,35.5055 7.30188,32.8964 8.57251,31.3029C 9.62244,29.9897 11.0872,29.3333 12.9664,29.3333 Z M 12.9664,32.5653C 12.4918,32.5653 12.0673,32.7042 11.6931,32.9819C 11.319,33.2596 11.0299,33.7562 10.826,34.4717C 10.5552,35.4031 10.4198,36.97 10.4198,39.1724C 10.4198,41.3718 10.5411,42.8833 10.7842,43.7068C 11.0271,44.5302 11.3329,45.0787 11.7015,45.3522C 12.0701,45.6257 12.4918,45.7626 12.9664,45.7626C 13.4412,45.7626 13.8656,45.6237 14.2399,45.3459C 14.614,45.0681 14.9031,44.5715 15.1069,43.8562C 15.3778,42.9331 15.5132,41.3718 15.5132,39.1724C 15.5132,36.97 15.3917,35.4572 15.1488,34.6337C 14.9059,33.8103 14.6001,33.2596 14.2314,32.9819C 13.8629,32.7042 13.4412,32.5653 12.9664,32.5653 Z "/>
				<path fill="#000000" fill-opacity="1" fill-rule="evenodd" stroke-width="0.999875" stroke-linejoin="round" d="M 21.947,43.2585L 25.7001,42.7999C 25.8063,43.7594 26.0931,44.493 26.5609,45.0009C 27.0287,45.5087 27.5948,45.7626 28.2594,45.7626C 28.9714,45.7626 29.5719,45.4875 30.0605,44.9377C 30.5492,44.3878 30.7936,43.6458 30.7936,42.7115C 30.7936,41.8278 30.5743,41.1278 30.1359,40.6116C 29.6975,40.0953 29.1627,39.8373 28.5316,39.8373C 28.1156,39.8373 27.6185,39.9285 27.0404,40.1108L 27.3839,36.8746C 28.2301,36.8999 28.8759,36.6971 29.3212,36.2665C 29.7666,35.8358 29.9894,35.2656 29.9894,34.5558C 29.9894,33.9498 29.819,33.4666 29.4783,33.1061C 29.1376,32.7456 28.6838,32.5653 28.1169,32.5653C 27.5613,32.5653 27.0858,32.7715 26.6908,33.184C 26.2955,33.5963 26.0548,34.1981 25.9681,34.9893L 22.2151,34.4464C 22.4496,33.2625 22.8029,32.317 23.2748,31.61C 23.7467,30.9031 24.4052,30.3469 25.2499,29.9414C 26.0946,29.5361 27.0404,29.3333 28.0876,29.3333C 29.8832,29.3333 31.3214,29.9113 32.402,31.0671C 33.2955,32.0154 33.7424,33.0857 33.7424,34.2781C 33.7424,35.9698 32.8069,37.3193 30.9359,38.3264C 32.0306,38.5621 32.9061,39.0909 33.5623,39.913C 34.2185,40.735 34.5466,41.7281 34.5466,42.8925C 34.5466,44.5814 33.9386,46.0206 32.7224,47.2102C 31.5063,48.3998 29.9935,48.9945 28.184,48.9945C 26.4667,48.9945 25.0431,48.4657 23.9137,47.408C 22.7841,46.3503 22.1285,44.9672 21.947,43.2585 Z "/>
			</g>
		</g>
	</g>
</svg>
