<?xml version="1.0" encoding="utf-8"?>
<!DOCTYPE svg PUBLIC "-//W3C//DTD SVG 1.1//EN" "http://www.w3.org/Graphics/SVG/1.1/DTD/svg11.dtd">
<svg xmlns="http://www.w3.org/2000/svg" xmlns:xlink="http://www.w3.org/1999/xlink" version="1.1" baseProfile="full" width="137.333" height="137.333" viewBox="0 0 137.33 137.33" enable-background="new 0 0 137.33 137.33" xml:space="preserve">
	<g>
		<g>
			<image x="0" y="0" width="103" height="103" transform="matrix(1.33,0.00,0.00,1.33,0.00,-0.00)" xlink:href="icon_counseling_step01_files/image0.png"/>
			<path fill="#353436" fill-opacity="1" stroke-width="0.999875" stroke-linejoin="round" d="M 104.004,40.0045C 109.702,40.0035 115.045,42.2183 119.081,46.2454C 123.117,50.2822 125.333,55.6373 125.333,61.338C 125.333,67.0494 123.118,72.3923 119.092,76.4194C 115.056,80.4558 109.702,82.6724 104.002,82.6724C 100.518,82.6724 97.105,81.8259 94.0497,80.2164L 93.612,79.9863L 93.2007,80.2618C 90.3601,82.1584 87.5028,82.4563 86.0028,82.4563C 85.421,82.4563 84.8546,82.4119 84.3311,82.3286C 83.6593,82.2262 83.1635,81.725 83.0625,81.0516C 82.9627,80.3923 83.2896,79.7592 83.8907,79.464C 85.3449,78.7491 86.5318,77.4263 87.4639,75.6171L 87.7133,75.135L 87.3726,74.7126C 80.5901,66.2915 81.1871,53.9862 88.9141,46.2579C 92.95,42.2209 98.3045,40.0045 104.004,40.0045 Z M 104.001,41.4467C 98.6951,41.4453 93.6924,43.5164 89.9403,47.2676C 82.5167,54.6843 82.1456,66.6642 89.0996,74.5074C 89.2935,74.7224 89.3379,75.0133 89.2243,75.2682C 88.4252,77.0939 87.4487,78.5083 86.3268,79.5155L 84.4792,81.1737L 86.9514,80.9628C 88.5414,80.8271 90.8808,80.2856 93.1245,78.5387C 93.2602,78.4349 93.4084,78.3877 93.5649,78.3877L 93.9277,78.4877C 96.9721,80.2856 100.453,81.2289 104.001,81.2289C 109.308,81.2289 114.315,79.1578 118.067,75.4038C 121.819,71.6498 123.891,66.6477 123.891,61.338C 123.891,56.0297 121.821,51.0244 118.067,47.2717C 114.314,43.5192 109.31,41.4467 104.001,41.4467 Z "/>
			<path fill="#353436" fill-opacity="1" stroke-width="0.999875" stroke-linejoin="round" d="M 78.0317,98.3701C 83.6832,103.189 87.6514,111.5 88.0121,121.257C 88.1324,122.462 87.2906,123.546 86.2084,123.907C 83.082,124.871 75.9874,126.678 66.007,126.678C 56.0265,126.678 48.9319,124.871 45.8055,123.907C 44.7232,123.546 44.0017,122.462 44.0017,121.257C 44.4828,111.621 48.3307,103.309 53.9822,98.3702C 57.2289,101.141 61.4376,102.707 66.007,102.707C 70.5764,102.707 74.785,101.141 78.0317,98.3701 Z M 66.007,70.665C 73.1793,70.665 78.9937,76.4896 78.9937,83.6747C 78.9936,90.8594 73.1793,96.684 66.0069,96.684C 58.8346,96.684 53.0202,90.8594 53.0202,83.6747C 53.0202,76.4897 58.8346,70.665 66.007,70.665 Z "/>
		</g>
		<g>
			<g>
				<path fill="#000000" fill-opacity="1" fill-rule="evenodd" stroke-width="0.999875" stroke-linejoin="round" d="M 9.33334,13.0499L 10.7408,12.9489C 10.8266,13.4003 11.001,13.7318 11.2638,13.944C 11.5266,14.1559 11.8816,14.2618 12.3288,14.2618C 12.8011,14.2618 13.1571,14.1656 13.3969,13.973C 13.6367,13.7806 13.7566,13.5554 13.7566,13.2977C 13.7566,13.1324 13.7069,12.9921 13.6074,12.8763C 13.5079,12.7606 13.3346,12.6595 13.0875,12.5734C 12.9178,12.5112 12.5314,12.4012 11.9283,12.2435C 11.1523,12.0404 10.6078,11.7958 10.2946,11.5096C 9.85483,11.1078 9.63492,10.6176 9.63492,10.0389C 9.63492,9.66638 9.73572,9.31824 9.93729,8.99414C 10.1389,8.67004 10.4295,8.42346 10.8091,8.25403C 11.1887,8.08459 11.6471,7.99988 12.1843,7.99988C 13.0608,7.99988 13.7207,8.19275 14.1642,8.57825C 14.6077,8.96399 14.8404,9.47815 14.8624,10.121L 13.455,10.2219C 13.3964,9.86316 13.2699,9.6051 13.0757,9.44788C 12.8814,9.29065 12.5901,9.21191 12.2016,9.21191C 11.8015,9.21191 11.4879,9.29773 11.2607,9.46912C 11.1151,9.57971 11.0423,9.72693 11.0423,9.91101C 11.0423,10.0795 11.113,10.2235 11.2544,10.3434C 11.4345,10.496 11.8712,10.6598 12.5644,10.8351C 13.2576,11.0101 13.7702,11.1871 14.1022,11.3661C 14.4341,11.5449 14.6941,11.7889 14.882,12.0983C 15.07,12.4076 15.164,12.7906 15.164,13.2472C 15.164,13.6595 15.0499,14.0463 14.8216,14.4071C 14.5933,14.7679 14.2705,15.036 13.8532,15.2111C 13.4359,15.3864 12.9157,15.4739 12.2927,15.4739C 11.3858,15.4739 10.6894,15.2675 10.2036,14.8545C 9.71765,14.4415 9.42758,13.84 9.33334,13.0499 Z "/>
				<path fill="#000000" fill-opacity="1" fill-rule="evenodd" stroke-width="0.999875" stroke-linejoin="round" d="M 18.1799,15.3729L 18.1799,9.31287L 16.0688,9.31287L 16.0688,8.10095L 21.6984,8.10095L 21.6984,9.31287L 19.5872,9.31287L 19.5872,15.3729L 18.1799,15.3729 Z "/>
				<path fill="#000000" fill-opacity="1" fill-rule="evenodd" stroke-width="0.999875" stroke-linejoin="round" d="M 22.7037,15.3729L 22.7037,8.10095L 28.1322,8.10095L 28.1322,9.31287L 24.1111,9.31287L 24.1111,10.9288L 27.8307,10.9288L 27.8307,12.141L 24.1111,12.141L 24.1111,14.1609L 28.2328,14.1609L 28.2328,15.3729L 22.7037,15.3729 Z "/>
				<path fill="#000000" fill-opacity="1" fill-rule="evenodd" stroke-width="0.999875" stroke-linejoin="round" d="M 29.5396,15.3729L 29.5396,8.10095L 31.9209,8.10095C 32.8236,8.10095 33.4116,8.13733 33.6849,8.20984C 34.1058,8.31921 34.4585,8.5575 34.7428,8.92468C 35.0271,9.29187 35.1692,9.76587 35.1692,10.3466C 35.1692,10.7938 35.0857,11.17 34.9187,11.4757C 34.7517,11.7814 34.5399,12.0212 34.2833,12.1954C 34.0268,12.3695 33.7655,12.485 33.4995,12.5417C 33.1393,12.6112 32.6167,12.6459 31.9319,12.6459L 30.947,12.6459L 30.947,15.3729L 29.5396,15.3729 Z M 30.947,9.31287L 30.947,11.434L 31.8204,11.434C 32.4497,11.434 32.8704,11.3947 33.0825,11.3163C 33.2945,11.2379 33.4608,11.1156 33.5812,10.9493C 33.7016,10.7832 33.7618,10.5897 33.7618,10.3688C 33.7618,10.0962 33.6773,9.87158 33.5081,9.69482C 33.339,9.51807 33.1252,9.40759 32.8665,9.3634C 32.6759,9.32971 32.2932,9.31287 31.7183,9.31287L 30.947,9.31287 Z "/>
			</g>
			<g>
				<path fill="#000000" fill-opacity="1" fill-rule="evenodd" stroke-width="0.999875" stroke-linejoin="round" d="M 14.2998,25.3334C 16.1791,25.3334 17.648,25.9982 18.7063,27.328C 19.9685,28.9047 20.5996,31.5195 20.5996,35.1722C 20.5996,38.8138 19.9643,41.4314 18.6938,43.025C 17.6438,44.338 16.1791,44.9945 14.2998,44.9945C 12.4121,44.9945 10.8902,44.2742 9.73413,42.8335C 8.57803,41.3928 8,38.8251 8,35.1302C 8,31.5055 8.63528,28.8964 9.90585,27.3029C 10.9558,25.9899 12.4205,25.3334 14.2998,25.3334 Z M 14.2998,28.5653C 13.8251,28.5653 13.4006,28.7042 13.0265,28.9818C 12.6523,29.2596 12.3632,29.7562 12.1594,30.4717C 11.8885,31.4031 11.7531,32.97 11.7531,35.1722C 11.7531,37.3718 11.8745,38.8833 12.1175,39.7068C 12.3604,40.5302 12.6662,41.0786 13.0348,41.3522C 13.4034,41.6257 13.8251,41.7625 14.2998,41.7625C 14.7745,41.7625 15.199,41.6237 15.5732,41.3458C 15.9474,41.0681 16.2364,40.5715 16.4402,39.8561C 16.7111,38.9331 16.8465,37.3718 16.8465,35.1722C 16.8465,32.97 16.7251,31.457 16.4821,30.6337C 16.2392,29.8102 15.9334,29.2596 15.5648,28.9818C 15.1962,28.7042 14.7745,28.5653 14.2998,28.5653 Z "/>
				<path fill="#000000" fill-opacity="1" fill-rule="evenodd" stroke-width="0.999875" stroke-linejoin="round" d="M 32.9311,44.7251L 29.1781,44.7251L 29.1781,30.8041C 27.8125,32.2236 26.2041,33.2729 24.3527,33.9519L 24.3527,30.1813C 25.33,29.8671 26.3912,29.2723 27.5361,28.3969C 28.681,27.5216 29.4671,26.5004 29.8943,25.3334L 32.9311,25.3334L 32.9311,44.7251 Z "/>
			</g>
		</g>
	</g>
</svg>
