<?xml version="1.0" encoding="utf-8"?>
<!DOCTYPE svg PUBLIC "-//W3C//DTD SVG 1.1//EN" "http://www.w3.org/Graphics/SVG/1.1/DTD/svg11.dtd">
<svg xmlns="http://www.w3.org/2000/svg" xmlns:xlink="http://www.w3.org/1999/xlink" version="1.1" baseProfile="full" width="137.333" height="138.667" viewBox="0 0 137.33 138.67" enable-background="new 0 0 137.33 138.67" xml:space="preserve">
	<g>
		<g>
			<image x="0" y="0" width="103" height="104" transform="matrix(1.33,0.00,0.00,1.33,0.00,0.00)" xlink:href="icon_counseling_step02_files/image1.png"/>
			<path fill="#000000" fill-opacity="1" stroke-width="0.999875" stroke-linejoin="round" d="M 97.869,65.3235L 123.995,65.3236L 123.995,121.59L 97.8689,121.59C 90.4051,121.59 86.6727,125.34 86.6727,125.34C 86.6727,125.34 82.9404,121.59 75.4758,121.59L 49.3504,121.59L 49.3504,65.3236L 75.4758,65.3236C 82.9404,65.3236 86.6727,69.0731 86.6728,69.073C 86.6728,69.073 90.4052,65.3235 97.869,65.3235 Z M 53.0815,117.84L 75.4744,117.84C 79.4396,117.84 82.5441,118.731 84.8052,119.754L 84.8052,72.4761C 84.8052,72.4761 82.1701,69.0754 75.4744,69.0754L 53.0815,69.0753L 53.0815,117.84 Z M 120.262,117.84L 120.262,69.0753L 97.8677,69.0753C 91.2731,69.0753 88.5378,72.4531 88.5378,72.4531L 88.5378,119.754C 90.7983,118.731 93.9028,117.84 97.8679,117.84L 120.262,117.84 Z M 94.1357,80.3265L 105.333,80.3265L 105.333,84.0781L 94.1356,84.0781L 94.1357,80.3265 Z M 94.1357,91.5818L 112.797,91.5818L 112.797,95.3329L 94.1357,95.3329L 94.1357,91.5818 Z M 94.1358,102.835L 112.797,102.835L 112.797,106.587L 94.1357,106.587L 94.1358,102.835 Z M 74.7039,93.1797C 78.2855,95.2518 80.6982,99.1348 80.6965,103.585L 80.6965,114.088L 56.8127,114.088L 56.8127,103.585C 56.8127,99.1353 59.2251,95.2527 62.8045,93.1801C 60.7385,91.4604 59.4226,88.8624 59.4226,85.9559C 59.4226,80.7761 63.5993,76.5774 68.7534,76.5774C 73.9075,76.5774 78.0842,80.7761 78.0843,85.9559C 78.0843,88.8616 76.769,91.4587 74.7039,93.1797 Z M 63.1561,85.9558C 63.156,89.0576 65.6672,91.582 68.7543,91.582C 71.8416,91.582 74.3528,89.0576 74.3528,85.9558C 74.3528,82.8531 71.8416,80.3291 68.7544,80.3291C 65.6672,80.3291 63.1561,82.853 63.1561,85.9558 Z M 60.5471,110.337L 65.8233,110.337L 68.1356,99.4996L 65.5224,96.0013C 62.5989,97.266 60.5469,100.188 60.5471,103.585L 60.5471,110.337 Z M 76.9665,110.337L 76.9673,103.585C 76.9673,100.188 74.913,97.2659 71.9894,96.0012L 69.3819,99.4995L 71.6887,110.337L 76.9665,110.337 Z "/>
		</g>
		<g>
			<g>
				<path fill="#000000" fill-opacity="1" fill-rule="evenodd" stroke-width="0.999875" stroke-linejoin="round" d="M 9.33325,14.3833L 10.7407,14.2822C 10.8266,14.7336 11.0009,15.0652 11.2637,15.2773C 11.5266,15.4893 11.8816,15.5952 12.3287,15.5952C 12.801,15.5952 13.157,15.499 13.3968,15.3064C 13.6367,15.114 13.7565,14.8888 13.7565,14.6311C 13.7565,14.4658 13.7068,14.3254 13.6074,14.2097C 13.5078,14.094 13.3345,13.9929 13.0874,13.9067C 12.9177,13.8446 12.5313,13.7346 11.9282,13.5769C 11.1523,13.3738 10.6077,13.1292 10.2946,12.843C 9.85474,12.4412 9.63483,11.9509 9.63483,11.3723C 9.63483,10.9998 9.73566,10.6516 9.93726,10.3275C 10.1389,10.0034 10.4294,9.75684 10.809,9.5874C 11.1887,9.41797 11.647,9.33325 12.1843,9.33325C 13.0607,9.33325 13.7207,9.52612 14.1641,9.91162C 14.6077,10.2974 14.8404,10.8115 14.8624,11.4543L 13.455,11.5553C 13.3963,11.1965 13.2698,10.9385 13.0756,10.7813C 12.8813,10.624 12.59,10.5453 12.2015,10.5453C 11.8015,10.5453 11.4879,10.6311 11.2606,10.8025C 11.1151,10.9131 11.0422,11.0603 11.0422,11.2444C 11.0422,11.4128 11.113,11.5569 11.2543,11.6768C 11.4344,11.8293 11.8711,11.9932 12.5644,12.1685C 13.2576,12.3435 13.7702,12.5205 14.1021,12.6995C 14.4341,12.8783 14.694,13.1223 14.882,13.4316C 15.07,13.741 15.164,14.124 15.164,14.5806C 15.164,14.9929 15.0498,15.3796 14.8215,15.7405C 14.5933,16.1013 14.2704,16.3694 13.8532,16.5444C 13.4359,16.7197 12.9157,16.8073 12.2925,16.8073C 11.3857,16.8073 10.6894,16.6008 10.2034,16.1879C 9.71759,15.7749 9.42749,15.1733 9.33325,14.3833 Z "/>
				<path fill="#000000" fill-opacity="1" fill-rule="evenodd" stroke-width="0.999875" stroke-linejoin="round" d="M 18.1799,16.7063L 18.1799,10.6462L 16.0688,10.6462L 16.0688,9.43433L 21.6983,9.43433L 21.6983,10.6462L 19.5872,10.6462L 19.5872,16.7063L 18.1799,16.7063 Z "/>
				<path fill="#000000" fill-opacity="1" fill-rule="evenodd" stroke-width="0.999875" stroke-linejoin="round" d="M 22.7036,16.7063L 22.7036,9.43433L 28.1321,9.43433L 28.1321,10.6462L 24.111,10.6462L 24.111,12.2622L 27.8306,12.2622L 27.8306,13.4744L 24.111,13.4744L 24.111,15.4943L 28.2327,15.4943L 28.2327,16.7063L 22.7036,16.7063 Z "/>
				<path fill="#000000" fill-opacity="1" fill-rule="evenodd" stroke-width="0.999875" stroke-linejoin="round" d="M 29.5396,16.7063L 29.5396,9.43433L 31.9209,9.43433C 32.8235,9.43433 33.4116,9.4707 33.6848,9.54321C 34.1058,9.65259 34.4584,9.89087 34.7427,10.2581C 35.0271,10.6252 35.1692,11.0992 35.1692,11.6799C 35.1692,12.1272 35.0857,12.5034 34.9187,12.8091C 34.7516,13.1147 34.5399,13.3546 34.2833,13.5288C 34.0268,13.7029 33.7654,13.8184 33.4995,13.8751C 33.1392,13.9446 32.6167,13.9792 31.9319,13.9792L 30.947,13.9792L 30.947,16.7063L 29.5396,16.7063 Z M 30.947,10.6462L 30.947,12.7673L 31.8203,12.7673C 32.4497,12.7673 32.8704,12.728 33.0825,12.6497C 33.2945,12.5713 33.4608,12.449 33.5811,12.2827C 33.7016,12.1166 33.7618,11.9231 33.7618,11.7021C 33.7618,11.4296 33.6772,11.205 33.5081,11.0282C 33.3391,10.8514 33.1252,10.741 32.8665,10.6968C 32.6758,10.6631 32.2932,10.6462 31.7183,10.6462L 30.947,10.6462 Z "/>
			</g>
			<g>
				<path fill="#000000" fill-opacity="1" fill-rule="evenodd" stroke-width="0.999875" stroke-linejoin="round" d="M 12.9665,28C 14.8458,28 16.3146,28.6649 17.373,29.9948C 18.6352,31.5714 19.2663,34.1862 19.2663,37.839C 19.2663,41.4806 18.631,44.0981 17.3604,45.6917C 16.3105,47.0046 14.8458,47.6611 12.9665,47.6611C 11.0788,47.6611 9.55688,46.9408 8.40082,45.5002C 7.24469,44.0596 6.66669,41.4918 6.66669,37.7969C 6.66669,34.1721 7.30194,31.563 8.57251,29.9695C 9.6225,28.6565 11.0872,28 12.9665,28 Z M 12.9665,31.2319C 12.4918,31.2319 12.0673,31.3708 11.6931,31.6486C 11.3189,31.9264 11.0298,32.423 10.826,33.1383C 10.5552,34.0698 10.4197,35.6367 10.4197,37.839C 10.4197,40.0386 10.5412,41.55 10.7842,42.3734C 11.0271,43.1969 11.3328,43.7454 11.7015,44.0189C 12.0701,44.2925 12.4918,44.4292 12.9665,44.4292C 13.4412,44.4292 13.8657,44.2903 14.2398,44.0126C 14.614,43.7349 14.9031,43.2383 15.1069,42.5228C 15.3777,41.5999 15.5132,40.0386 15.5132,37.839C 15.5132,35.6367 15.3918,34.1238 15.1487,33.3003C 14.9058,32.4769 14.6001,31.9264 14.2314,31.6486C 13.8629,31.3708 13.4412,31.2319 12.9665,31.2319 Z "/>
				<path fill="#000000" fill-opacity="1" fill-rule="evenodd" stroke-width="0.999875" stroke-linejoin="round" d="M 34.5466,43.6212L 34.5466,47.3918L 21.947,47.3918C 22.0811,46.1041 22.4839,44.8844 23.1555,43.7328C 23.8271,42.5811 25.1528,41.0527 27.1326,39.1478C 28.7271,37.6104 29.7045,36.5667 30.0647,36.0168C 30.5506,35.2621 30.7935,34.5144 30.7935,33.7738C 30.7935,32.9574 30.5855,32.3296 30.1694,31.8906C 29.7534,31.4515 29.1782,31.2319 28.4437,31.2319C 27.7177,31.2319 27.1403,31.4606 26.7117,31.918C 26.283,32.3752 26.0352,33.1342 25.9682,34.1946L 22.2151,33.8326C 22.4301,31.7538 23.108,30.262 24.2487,29.3572C 25.3894,28.4524 26.8143,28 28.5233,28C 30.397,28 31.8694,28.5029 32.9402,29.5087C 34.0112,30.5144 34.5466,31.7665 34.5466,33.2645C 34.5466,34.1146 34.3979,34.9248 34.1005,35.6948C 33.8032,36.465 33.3318,37.2709 32.6868,38.1125C 32.2596,38.6709 31.4672,39.4746 30.3098,40.5239C 29.1523,41.5731 28.4249,42.2704 28.1274,42.6155C 27.8301,42.9604 27.5892,43.2958 27.4048,43.6212L 34.5466,43.6212 Z "/>
			</g>
		</g>
	</g>
</svg>
